<?xml version="1.0" encoding="utf-8"?>
<!-- Generator: Adobe Illustrator 17.0.2, SVG Export Plug-In . SVG Version: 6.00 Build 0)  -->
<!DOCTYPE svg PUBLIC "-//W3C//DTD SVG 1.1//EN" "http://www.w3.org/Graphics/SVG/1.1/DTD/svg11.dtd">
<svg version="1.1" id="Layer_1" xmlns="http://www.w3.org/2000/svg" xmlns:xlink="http://www.w3.org/1999/xlink" x="0px" y="0px"
	 width="492px" height="188px" viewBox="0 0 492 188" enable-background="new 0 0 492 188" xml:space="preserve">
<path fill="#82A6D7" d="M15.254,72.835c0-5.846,4.732-10.578,10.586-10.578c5.836,0,10.581,4.732,10.581,10.578
	c0,5.841-4.745,10.573-10.581,10.573C19.986,83.408,15.254,78.675,15.254,72.835"/>
<path fill="#82A6D7" d="M15.254,96.021c0-5.847,4.732-10.59,10.586-10.59c5.836,0,10.581,4.744,10.581,10.59
	c0,5.841-4.745,10.565-10.581,10.565C19.986,106.587,15.254,101.862,15.254,96.021"/>
<path fill="#82A6D7" d="M104.068,96.021c0-5.847,4.737-10.59,10.59-10.59c5.852,0,10.566,4.744,10.566,10.59
	c0,5.841-4.714,10.565-10.566,10.565C108.805,106.587,104.068,101.862,104.068,96.021"/>
<path fill="#82A6D7" d="M16.267,119.696c0-5.288,4.282-9.57,9.574-9.57c5.278,0,9.567,4.282,9.567,9.57
	c0,5.284-4.289,9.563-9.567,9.563C20.549,129.26,16.267,124.98,16.267,119.696"/>
<path fill="#82A6D7" d="M105.08,119.696c0-5.288,4.289-9.57,9.579-9.57c5.271,0,9.56,4.282,9.56,9.57
	c0,5.284-4.289,9.563-9.56,9.563C109.369,129.26,105.08,124.98,105.08,119.696"/>
<path fill="#82A6D7" d="M17.005,143.635c0-4.876,3.948-8.833,8.835-8.833c4.858,0,8.805,3.957,8.805,8.833
	c0,4.855-3.947,8.811-8.805,8.811C20.954,152.445,17.005,148.489,17.005,143.635"/>
<path fill="#82A6D7" d="M17.518,164.791c0-4.597,3.717-8.319,8.323-8.319c4.591,0,8.299,3.723,8.299,8.319
	c0,4.585-3.708,8.311-8.299,8.311C21.234,173.102,17.518,169.376,17.518,164.791"/>
<path fill="#82A6D7" d="M42.264,164.791c0-4.597,3.728-8.319,8.327-8.319c4.578,0,8.309,3.723,8.309,8.319
	c0,4.585-3.731,8.311-8.309,8.311C45.992,173.102,42.264,169.376,42.264,164.791"/>
<path fill="#82A6D7" d="M66.958,164.791c0-4.597,3.723-8.319,8.315-8.319c4.593,0,8.305,3.723,8.305,8.319
	c0,4.585-3.712,8.311-8.305,8.311C70.681,173.102,66.958,169.376,66.958,164.791"/>
<path fill="#82A6D7" d="M91.635,164.791c0-4.597,3.727-8.319,8.314-8.319c4.598,0,8.311,3.723,8.311,8.319
	c0,4.585-3.713,8.311-8.311,8.311C95.362,173.102,91.635,169.376,91.635,164.791"/>
<path fill="#82A6D7" d="M105.838,143.635c0-4.876,3.943-8.833,8.82-8.833c4.86,0,8.798,3.957,8.798,8.833
	c0,4.855-3.938,8.811-8.798,8.811C109.781,152.445,105.838,148.489,105.838,143.635"/>
<path fill="#82A6D7" d="M39.255,72.835c0-5.846,4.748-10.578,10.588-10.578c5.838,0,10.58,4.732,10.58,10.578
	c0,5.841-4.742,10.573-10.58,10.573C44.003,83.408,39.255,78.675,39.255,72.835"/>
<path fill="#82A6D7" d="M63.457,72.835c0-5.846,4.729-10.578,10.557-10.578c5.853,0,10.588,4.732,10.588,10.578
	c0,5.841-4.735,10.573-10.588,10.573C68.186,83.408,63.457,78.675,63.457,72.835"/>
<path fill="#82A6D7" d="M86.62,72.835c0-5.846,4.737-10.578,10.572-10.578c5.847,0,10.578,4.732,10.578,10.578
	c0,5.841-4.731,10.573-10.578,10.573C91.357,83.408,86.62,78.675,86.62,72.835"/>
<path fill="#82A6D7" d="M25.84,60.239c-5.854,0-10.586-4.732-10.586-10.578c0-5.853,4.732-10.578,10.586-10.578
	c5.836,0,10.581,4.725,10.581,10.578C36.421,55.507,31.676,60.239,25.84,60.239"/>
<path fill="#82A6D7" d="M25.84,36.06c-5.854,0-10.586-4.743-10.586-10.572c0-5.853,4.732-10.59,10.586-10.59
	c5.836,0,10.581,4.737,10.581,10.59C36.421,31.316,31.676,36.06,25.84,36.06"/>
<path fill="#565656" d="M143.471,114.49c0-7.85,0-15.117-0.144-18.532c4.504,0,10.973-0.073,14.171-0.073
	c9.012,0,13.808,4.506,13.808,11.338c0,5.159-2.543,9.811-8.067,11.701c6.396,0.944,10.684,5.159,10.684,12.064
	c0,9.303-7.049,14.318-16.861,14.318c-4.215,0-9.593-0.146-13.882-0.146c0.147-3.416,0.291-7.485,0.291-19.332V114.49z
	 M149.285,117.106h5.887c5.378,0,10.248-2.399,10.248-8.867c0-4.651-2.907-7.776-9.666-7.776c-1.527,0-4.288,0-6.469,0.073V117.106z
	 M149.285,140.363c1.744,0.073,4.942,0.146,6.469,0.146c7.05,0,11.919-2.689,11.919-9.595c0-5.742-3.997-9.157-11.411-9.157h-6.977
	V140.363z"/>
<path fill="#565656" d="M220.152,145.451l-27.908-35.977c-1.017-1.307-2.253-3.415-2.761-4.505h-0.146
	c0.218,1.38,0.291,3.052,0.291,4.724v35.467h-5.668c0.072-3.635,0.144-7.994,0.144-14.245v-21.804c0-5.959-0.072-9.738-0.218-13.372
	h4.725l27.908,36.339c1.016,1.309,1.744,2.762,2.253,3.707h0.145c-0.145-1.163-0.219-2.907-0.219-4.651V95.958h5.67
	c-0.073,3.561-0.146,7.993-0.146,14.025v18.824c0,7.776,0.073,13.373,0.146,16.644H220.152z"/>
<path fill="#565656" d="M233.824,121.25c0-15.917,9.667-26.237,24.129-26.237c13.592,0,22.531,10.029,22.531,25.001
	c0,16.062-9.521,26.237-23.838,26.237C242.982,146.251,233.824,135.857,233.824,121.25 M274.452,120.886
	c0-13.082-7.123-20.714-17.225-20.714c-11.12,0-17.371,8.649-17.371,20.423c0,11.628,6.106,20.567,17.224,20.567
	C268.418,141.162,274.452,132.949,274.452,120.886"/>
<path fill="#565656" d="M297.135,145.16c0.073-4.07,0.22-10.685,0.22-19.042v-25h-5.525c-4.07,0-6.978,0-9.374,0.072l0.071-5.232
	h36.05v5.232c-2.254-0.072-5.597-0.072-9.594-0.072h-5.814v25.218c0,7.776,0,14.682,0.144,18.824H297.135z"/>
<path fill="#565656" d="M325.632,145.16c0.071-3.488,0.145-7.777,0.145-18.75v-13.156c0-9.884,0-14.026-0.218-17.296h6.249
	c-0.072,3.342-0.218,7.412-0.218,17.151v13.154c0,11.192,0,15.408,0.146,18.896H325.632z"/>
<path fill="#565656" d="M341.84,121.25c0-15.917,9.667-26.237,24.129-26.237c13.592,0,22.531,10.029,22.531,25.001
	c0,16.062-9.521,26.237-23.838,26.237C350.999,146.251,341.84,135.857,341.84,121.25 M382.468,120.886
	c0-13.082-7.123-20.714-17.225-20.714c-11.12,0-17.371,8.649-17.371,20.423c0,11.628,6.106,20.567,17.225,20.567
	C376.435,141.162,382.468,132.949,382.468,120.886"/>
<path fill="#565656" d="M434.657,145.451l-27.908-35.977c-1.017-1.307-2.253-3.415-2.761-4.505h-0.146
	c0.219,1.38,0.29,3.052,0.29,4.724v35.467h-5.667c0.071-3.635,0.144-7.994,0.144-14.245v-21.804c0-5.959-0.072-9.738-0.217-13.372
	h4.724l27.908,36.339c1.017,1.309,1.744,2.762,2.253,3.707h0.145c-0.145-1.163-0.218-2.907-0.218-4.651V95.958h5.67
	c-0.073,3.561-0.146,7.993-0.146,14.025v18.824c0,7.776,0.073,13.373,0.146,16.644H434.657z"/>
<path fill="#565656" d="M449.057,136.802c3.416,2.907,7.776,4.579,11.919,4.579c6.323,0,9.374-3.779,9.374-8.358
	c0-4.651-2.614-6.977-10.465-10.393c-8.94-3.853-10.755-8.431-10.755-13.736c0-7.776,6.031-14.026,15.552-14.026
	c4.725,0,7.923,1.018,10.83,2.397l-1.163,5.67c-2.907-2.253-6.324-3.271-10.03-3.271c-4.723,0-9.085,3.415-9.085,8.43
	c0,5.088,1.744,7.195,9.594,10.466c8.212,3.416,11.919,7.413,11.919,13.737c0,7.703-5.669,13.88-16.134,13.88
	c-4.434,0-9.45-1.526-12.284-3.415L449.057,136.802z"/>
</svg>
