<?xml version="1.0" encoding="utf-8"?>
<!-- Generator: Adobe Illustrator 16.0.0, SVG Export Plug-In . SVG Version: 6.00 Build 0)  -->
<!DOCTYPE svg PUBLIC "-//W3C//DTD SVG 1.1//EN" "http://www.w3.org/Graphics/SVG/1.1/DTD/svg11.dtd">
<svg version="1.1" id="Layer_1" xmlns="http://www.w3.org/2000/svg" xmlns:xlink="http://www.w3.org/1999/xlink" x="0px" y="0px"
	 width="612px" height="792px" viewBox="0 0 612 792" enable-background="new 0 0 612 792" xml:space="preserve">
<g>
	<path d="M328.797,101.771c93.695,0,187.387,0,281.086,0c0,205.118,0,410.221,0,615.354c-202.602,0-405.181,0-607.766,0
		c0-205.133,0-410.236,0-615.354c93.694,0,187.39,0,281.084,0c-59.011,34.713-118.346,68.887-176.941,104.296
		c-43.99,26.585-71.594,62.074-67.791,118.829c3.431,51.036,3.431,102.659,0,153.709c-4.005,59.352,22.226,97.006,71.284,124.084
		c45.55,25.1,90.757,51.065,134.669,78.946c42.394,26.957,82.395,26.214,124.561,0.123c55.088-34.061,110.049-68.562,167.174-98.793
		c52.18-27.637,44.822-87.358,1.051-108.627c-24.699-11.993-46.955-29.118-71.162-44.465c0-26.755-0.678-51.037,0.189-75.273
		c1.08-30.262-12.736-51.716-37.127-66.662c-29.209-17.914-59.074-34.775-88.717-51.949c-21.33-12.333-42.678-14.157-64.698-0.879
		c-31.53,18.995-63.404,37.435-95.306,55.78c-24.576,14.174-34.823,35.581-34.264,63.757c0.649,32.041,1.437,64.159-0.049,96.136
		c-1.405,30.665,11.531,51.315,36.911,65.905c26.415,15.209,53.727,29.121,78.733,46.369c31.639,21.883,60.744,19.352,91.683-0.617
		c33.977-21.824,68.938-42.104,105.691-64.422c13.697,8.282,28.285,17.127,43.494,26.397c-4.666,6.986-6.061,11.252-8.904,12.982
		c-51.254,30.479-102.285,61.455-154.281,90.637c-20.959,11.744-44.39,11.375-65.659-0.865
		c-46.229-26.524-92.412-53.17-137.699-81.301c-24.064-14.961-36.382-37.774-35.811-67.76c0.881-47.373,1.529-94.869-0.231-142.227
		c-1.468-39.351,15.393-65.889,47.789-84.776c35.102-20.434,70.774-40.016,104.792-62.165c37.558-24.468,72.692-22.35,110.127,0.339
		c56.441,34.22,113.941,66.678,171.219,99.475c9.277,5.317,19.756,8.471,29.928,12.736c13.354-40.355,8.963-55.796-25.104-76.323
		C469.23,183.24,398.812,142.807,328.797,101.771z"/>
	<path d="M340.729,120.673c72.578,39.754,145.537,78.904,217.562,119.522c35.301,19.861,39.875,34.824,25.996,73.912
		c-10.51-4.126-21.361-7.188-30.973-12.333c-59.387-31.778-118.92-63.202-177.404-96.355
		c-38.857-21.979-75.229-24.003-114.146-0.324c-35.255,21.469-72.242,40.418-108.594,60.218
		c-33.557,18.284-51.053,43.987-49.537,82.103c1.837,45.857,1.174,91.871,0.248,137.746c-0.588,29.059,12.164,51.129,37.11,65.627
		c46.939,27.23,94.806,53.014,142.707,78.701c22.022,11.904,46.304,12.271,68.041,0.896
		c53.877-28.282,106.766-58.299,159.846-87.791c2.936-1.7,4.389-5.873,9.209-12.582c-15.732-9.024-30.881-17.557-45.008-25.562
		c-38.115,21.576-74.342,41.268-109.551,62.381c-32.088,19.32-62.229,21.793-95.01,0.586c-25.917-16.69-54.204-30.17-81.594-44.914
		c-26.289-14.129-39.673-34.129-38.237-63.802c1.529-30.992,0.71-62.088,0.046-93.124c-0.572-27.296,10.047-48.022,35.534-61.731
		c33.015-17.76,66.077-35.626,98.718-54.036c22.844-12.859,44.965-11.081,67.062,0.85c30.699,16.631,61.701,32.969,91.902,50.327
		c25.289,14.451,39.602,35.24,38.488,64.544c-0.932,23.477-0.188,46.985-0.188,72.922c25.07,14.836,48.129,31.438,73.729,43.061
		c45.346,20.619,52.98,78.396-1.053,105.195c-59.23,29.273-116.17,62.689-173.266,95.672c-43.68,25.258-85.129,25.998-129.057-0.094
		c-45.52-27.045-92.351-52.178-139.541-76.475c-50.849-26.244-78.053-62.689-73.864-120.188c3.523-49.428,3.523-99.43,0-148.858
		c-3.955-54.978,24.653-89.321,70.231-115.07c60.713-34.314,122.197-67.39,183.344-101.022
		C309.246,120.673,324.963,120.673,340.729,120.673z"/>
</g>
</svg>
